<svg clip-rule="evenodd" fill-rule="evenodd" stroke-linejoin="round" stroke-miterlimit="2" viewBox="0 0 256 256" xmlns="http://www.w3.org/2000/svg"><g id="color"><path d="m96 160.171c8.041 7.36 18.746 11.829 30.448 11.829h1.553c12.343 0 23.617-4.798 31.999-12.671 0 5.211-.001 24.42-.004 33.652 0 5.748-2.746 11.15-7.389 14.538-4.74 3.434-12.389 6.481-24.607 6.481s-19.867-3.047-24.609-6.478c-4.645-3.388-7.391-8.792-7.391-14.541z"/><path d="m128.001 32c14.56 0 28.478 5.993 38.483 16.569 10.006 10.577 15.217 24.806 14.41 39.343-.737 13.263-1.516 27.293-2.231 40.163-1.494 26.888-23.733 47.925-50.662 47.925-.518 0-1.036 0-1.553 0-26.059 0-47.579-20.358-49.024-46.376-.739-13.288-1.551-27.915-2.318-41.712-.807-14.537 4.404-28.766 14.41-39.343 10.005-10.576 23.923-16.569 38.483-16.569z"/></g><path d="m100 176.273v-8c7.648 4.897 16.733 7.727 26.448 7.727h1.553c10.323 0 19.958-3.092 27.998-8.42v8c-8.04 5.328-17.675 8.42-27.998 8.42h-1.553c-9.715 0-18.8-2.83-26.448-7.727z" opacity=".3"/><path d="m128.001 32c14.56 0 28.478 5.993 38.483 16.569 10.006 10.577 15.217 24.806 14.41 39.343l-2.231 40.163c-1.494 26.888-23.733 47.925-50.662 47.925h-1.553c-26.059 0-47.579-20.358-49.024-46.376l-2.318-41.712c-.807-14.537 4.404-28.766 14.41-39.343 10.005-10.576 23.923-16.569 38.483-16.569zm0 4h-.002c-13.461 0-26.328 5.54-35.578 15.318-9.25 9.779-14.068 22.933-13.321 36.373l2.317 41.711c1.328 23.899 21.095 42.598 45.031 42.598h1.553c24.806 0 45.292-19.379 46.668-44.147l2.231-40.162c.747-13.44-4.071-26.594-13.321-36.373-9.25-9.778-22.117-15.318-35.578-15.318z"/><path d="m96 160.171c8.041 7.36 18.746 11.829 30.448 11.829h1.553c12.343 0 23.617-4.798 31.999-12.671 0 5.211-.001 24.42-.004 33.652 0 5.748-2.746 11.15-7.389 14.538-4.74 3.434-12.389 6.481-24.607 6.481s-19.867-3.047-24.609-6.478c-4.645-3.388-7.391-8.792-7.391-14.541zm4 8.102v24.708c0 4.469 2.134 8.67 5.742 11.305 4.285 3.098 11.227 5.714 22.258 5.714s17.972-2.616 22.254-5.716c3.608-2.635 5.742-6.835 5.742-11.303v-.001c.002-6.348.003-17.413.003-25.4-8.04 5.328-17.675 8.42-27.998 8.42h-1.553c-9.715 0-18.8-2.83-26.448-7.727z"/></svg>