<svg id="svg-hair2" viewBox="0 0 75 75" xmlns="http://www.w3.org/2000/svg">
  <g transform="translate(0.000000,100.000000) scale(0.100000,-0.100000)"
fill="currentColor" stroke="none">
<path d="M300 1040 c-23 -9 -64 -56 -64 -74 0 -6 -12 -17 -28 -23 -15 -7 -36
-26 -46 -43 -21 -36 -36 -147 -18 -136 8 5 12 -6 12 -36 0 -41 22 -154 32
-164 3 -2 5 35 4 83 0 65 4 96 17 120 22 42 34 44 86 16 53 -28 92 -29 150 -3
24 11 51 20 61 20 38 0 65 -61 76 -167 8 -79 18 -68 39 45 12 63 13 91 5 129
-23 99 -63 159 -135 196 -30 16 -30 16 -5 17 25 2 24 2 -5 15 -37 17 -80 19
-108 4 -16 -9 -22 -9 -25 0 -4 13 -18 13 -48 1z"/>
</g>
</svg>
