<svg id="svg-hair_03" clip-rule="evenodd" fill-rule="evenodd" stroke-linecap="round" stroke-linejoin="round" stroke-miterlimit="1.5" viewBox="0 0 256 256" xmlns="http://www.w3.org/2000/svg"><g id="color" fill="currentColor"><path d="m70.513 91.374c-3.802-1.416-6.513-5.081-6.513-9.374 0-4.029 2.388-7.505 5.825-9.088-1.161-2.04-1.825-4.399-1.825-6.912 0-7.727 6.273-14 14-14 1.001 0 1.977.105 2.918.305-.597-1.998-.918-4.114-.918-6.305 0-12.142 9.858-22 22-22 6.471 0 12.294 2.8 16.321 7.254 4.092-8.994 13.16-15.254 23.679-15.254 14.35 0 26 11.65 26 26 0 2.163-.265 4.264-.763 6.273.893-.179 1.817-.273 2.763-.273 7.727 0 14 6.273 14 14 0 3.195-1.072 6.141-2.877 8.498 3.992 1.313 6.877 5.073 6.877 9.502 0 4.293-2.711 7.958-6.513 9.374 1.564 1.765 2.513 4.085 2.513 6.626 0 5.519-4.481 10-10 10-.038 0-.076 0-.114-.001l.918-16.522c-3.954-1.334-6.804-5.075-6.804-9.477 0-1.44.305-2.809.854-4.046-6.584-.535-11.886-5.633-12.735-12.123-4.067 2.637-8.915 4.169-14.119 4.169-8.668 0-16.351-4.251-21.076-10.78-3.837 6.452-10.879 10.78-18.924 10.78-3.602 0-7.003-.868-10.006-2.405.004.134.006.27.006.405 0 7.125-5.334 13.014-12.224 13.888.147.681.224 1.388.224 2.112 0 4.361-2.798 8.074-6.695 9.44l.92 16.558c-.075.001-.15.002-.225.002-5.519 0-10-4.481-10-10 0-2.541.949-4.861 2.513-6.626z" stroke="#000" stroke-width="4"/></g></svg>