<svg  id="svg-hair1" xmlns="http://www.w3.org/2000/svg" xmlns:xlink="http://www.w3.org/1999/xlink"  viewBox="0 0 512 512" enable-background="new 0 0 512 512" xml:space="preserve">
<path fill="currentColor" opacity="1.000000" stroke="none" 
	d="
M246.000000,1.000002 
	C257.687561,1.000000 269.375122,1.000000 281.691132,1.403421 
	C290.533295,2.877526 299.134399,2.771836 306.862701,5.316659 
	C316.524078,8.498019 325.655090,13.509529 334.684204,18.348347 
	C356.957489,30.284964 376.762756,45.345020 393.323242,64.676872 
	C406.572906,80.143829 417.773315,96.787857 425.196503,115.758934 
	C428.335968,123.782349 431.609131,132.060822 432.711121,140.498978 
	C434.203522,151.926758 433.622192,163.621063 434.016144,175.198120 
	C434.262878,182.449112 434.576080,189.701004 435.075562,196.937576 
	C435.178345,198.426620 435.977417,200.052826 436.912842,201.262024 
	C439.115326,204.109177 441.666412,206.683441 443.947815,209.473312 
	C452.866089,220.379333 460.830353,231.944733 465.612610,245.280472 
	C472.549103,264.623627 472.734802,282.859589 456.904236,298.879913 
	C450.556641,305.303589 452.243103,311.515503 459.292938,316.106689 
	C469.587555,322.811035 473.344971,337.339813 466.639771,346.357574 
	C463.240753,350.928833 461.678131,355.387604 460.842529,360.854065 
	C457.887726,380.184387 464.447723,395.155060 480.007874,406.694275 
	C482.523438,408.559814 484.792877,411.517120 485.848785,414.447968 
	C488.961884,423.089081 488.737793,432.042297 486.568115,440.921234 
	C482.779297,456.426117 475.671417,470.351624 466.346924,483.225006 
	C463.747284,486.813995 462.627136,486.823364 460.005768,483.353088 
	C456.581879,478.820465 453.028778,474.381165 449.397766,470.012695 
	C448.636749,469.097107 447.291779,468.091309 446.221893,468.097961 
	C436.575500,468.157532 425.726166,477.063324 424.139984,487.099365 
	C422.791351,495.632477 422.666382,504.359039 422.000000,513.000000 
	C419.958344,513.000000 417.916656,513.000000 415.435333,512.621094 
	C413.328125,511.161285 411.466553,510.289825 410.030701,508.958984 
	C406.258820,505.463013 401.543152,502.371216 399.224091,498.037231 
	C392.328857,485.151093 394.350616,471.699493 398.670197,458.202942 
	C397.479706,457.837097 396.126465,457.084717 394.756592,457.053253 
	C383.294983,456.789673 372.395111,454.133057 361.724152,450.046112 
	C338.865967,441.291504 324.002899,424.446075 315.378845,402.347412 
	C309.316925,386.814087 307.125488,370.185791 308.117828,353.382355 
	C308.235016,351.397705 309.481964,348.891785 311.028961,347.673401 
	C322.502563,338.637115 331.244934,327.525818 338.104279,314.663849 
	C345.824982,300.186676 350.925903,284.813080 353.825012,268.822937 
	C356.293030,255.210373 357.423401,241.355286 359.141113,227.642838 
	C346.531311,225.312454 338.487244,218.542496 331.990692,209.664703 
	C322.526489,196.731522 316.873474,182.184525 313.863678,166.496368 
	C313.607086,165.159058 311.607025,163.198959 310.363556,163.158249 
	C299.480438,162.801987 289.447906,159.491776 279.708405,155.002335 
	C267.995209,149.603119 257.835449,142.096344 250.047134,131.783875 
	C244.570099,124.531776 239.680038,116.836388 234.432419,109.199997 
	C228.523422,113.346443 225.500137,120.143982 222.123993,126.653824 
	C221.620132,127.625359 221.474808,128.983429 221.658508,130.079758 
	C223.388626,140.404800 224.867905,150.610962 223.164932,161.230148 
	C221.530151,171.424286 217.321228,179.980682 210.238693,187.176147 
	C204.822342,192.678909 198.963165,195.131454 194.409363,194.532806 
	C209.543442,179.345596 206.411697,160.292648 198.329376,149.278656 
	C198.041641,150.197876 197.941513,151.236191 197.441711,152.019516 
	C190.860733,162.333649 184.213211,172.605286 177.605347,182.902313 
	C175.031464,186.913193 171.210388,190.671387 170.238159,195.050995 
	C168.064743,204.841583 167.272675,214.943787 166.018417,224.931686 
	C165.205124,231.408096 165.153244,238.037552 163.735764,244.369095 
	C160.481918,258.903107 161.405014,273.008301 168.663544,285.922089 
	C174.960464,297.125031 181.964722,308.105621 189.999710,318.105011 
	C197.390198,327.302338 206.796021,334.852722 214.853729,343.554871 
	C218.113022,347.074829 224.448563,348.465363 223.964005,354.865479 
	C223.099701,366.281433 223.002365,377.872070 220.834778,389.050415 
	C214.919434,419.556213 196.572845,439.993286 167.289993,449.984467 
	C159.449600,452.659515 150.592514,452.186951 142.432556,454.127960 
	C125.247032,458.215942 108.081863,462.505157 91.170914,467.585785 
	C81.935051,470.360535 73.235504,474.920410 64.155510,478.733429 
	C68.673561,464.820953 55.871807,440.338623 45.932549,431.184357 
	C40.457634,441.682892 43.800930,453.062958 42.753246,464.544800 
	C41.604206,463.747467 40.951408,463.509979 40.635609,463.044067 
	C30.748920,448.457703 24.836931,432.507172 26.169830,414.733032 
	C26.827181,405.967285 28.911148,397.671906 35.554348,390.401825 
	C41.670460,383.708557 44.526592,377.246399 38.730247,367.225403 
	C34.366154,359.680542 33.159969,351.484802 33.898720,342.727814 
	C35.005116,329.612823 41.654171,319.869293 51.048470,311.400116 
	C55.029980,307.810669 59.246597,304.258728 62.351448,299.963348 
	C70.607437,288.541718 73.844269,275.176605 71.514175,261.610992 
	C68.969353,246.795242 65.192932,232.301102 67.983536,217.121368 
	C70.520767,203.319901 76.086159,191.274765 87.714256,182.754532 
	C95.937119,176.729385 102.216644,169.129395 104.874977,159.310852 
	C107.477402,149.698868 109.473907,139.862885 110.893982,130.003891 
	C113.414772,112.503105 117.943092,95.753525 126.373322,80.104691 
	C133.624832,66.643867 142.551804,54.770828 154.416672,44.829967 
	C169.220871,32.426422 185.858017,24.351120 204.502060,19.984282 
	C211.752106,18.286163 220.116150,18.765787 223.756348,9.902994 
	C224.273285,8.644410 226.171738,7.660627 227.640228,7.136586 
	C233.716339,4.968272 239.872955,3.025576 246.000000,1.000002 
z"/>
<path fill="none" opacity="1.000000" stroke="none" 
	d="
M245.531342,1.000002 
	C239.872955,3.025576 233.716339,4.968272 227.640228,7.136586 
	C226.171738,7.660627 224.273285,8.644410 223.756348,9.902994 
	C220.116150,18.765787 211.752106,18.286163 204.502060,19.984282 
	C185.858017,24.351120 169.220871,32.426422 154.416672,44.829967 
	C142.551804,54.770828 133.624832,66.643867 126.373322,80.104691 
	C117.943092,95.753525 113.414772,112.503105 110.893982,130.003891 
	C109.473907,139.862885 107.477402,149.698868 104.874977,159.310852 
	C102.216644,169.129395 95.937119,176.729385 87.714256,182.754532 
	C76.086159,191.274765 70.520767,203.319901 67.983536,217.121368 
	C65.192932,232.301102 68.969353,246.795242 71.514175,261.610992 
	C73.844269,275.176605 70.607437,288.541718 62.351448,299.963348 
	C59.246597,304.258728 55.029980,307.810669 51.048470,311.400116 
	C41.654171,319.869293 35.005116,329.612823 33.898720,342.727814 
	C33.159969,351.484802 34.366154,359.680542 38.730247,367.225403 
	C44.526592,377.246399 41.670460,383.708557 35.554348,390.401825 
	C28.911148,397.671906 26.827181,405.967285 26.169830,414.733032 
	C24.836931,432.507172 30.748920,448.457703 40.635609,463.044067 
	C40.951408,463.509979 41.604206,463.747467 42.753246,464.544800 
	C43.800930,453.062958 40.457634,441.682892 45.932549,431.184357 
	C55.871807,440.338623 68.673561,464.820953 64.155510,478.733429 
	C73.235504,474.920410 81.935051,470.360535 91.170914,467.585785 
	C108.081863,462.505157 125.247032,458.215942 142.432556,454.127960 
	C150.592514,452.186951 159.449600,452.659515 167.289993,449.984467 
	C196.572845,439.993286 214.919434,419.556213 220.834778,389.050415 
	C223.002365,377.872070 223.099701,366.281433 223.964005,354.865479 
	C224.448563,348.465363 218.113022,347.074829 214.853729,343.554871 
	C206.796021,334.852722 197.390198,327.302338 189.999710,318.105011 
	C181.964722,308.105621 174.960464,297.125031 168.663544,285.922089 
	C161.405014,273.008301 160.481918,258.903107 163.735764,244.369095 
	C165.153244,238.037552 165.205124,231.408096 166.018417,224.931686 
	C167.272675,214.943787 168.064743,204.841583 170.238159,195.050995 
	C171.210388,190.671387 175.031464,186.913193 177.605347,182.902313 
	C184.213211,172.605286 190.860733,162.333649 197.441711,152.019516 
	C197.941513,151.236191 198.041641,150.197876 198.329376,149.278656 
	C206.411697,160.292648 209.543442,179.345596 194.409363,194.532806 
	C198.963165,195.131454 204.822342,192.678909 210.238693,187.176147 
	C217.321228,179.980682 221.530151,171.424286 223.164932,161.230148 
	C224.867905,150.610962 223.388626,140.404800 221.658508,130.079758 
	C221.474808,128.983429 221.620132,127.625359 222.123993,126.653824 
	C225.500137,120.143982 228.523422,113.346443 234.432419,109.199997 
	C239.680038,116.836388 244.570099,124.531776 250.047134,131.783875 
	C257.835449,142.096344 267.995209,149.603119 279.708405,155.002335 
	C289.447906,159.491776 299.480438,162.801987 310.363556,163.158249 
	C311.607025,163.198959 313.607086,165.159058 313.863678,166.496368 
	C316.873474,182.184525 322.526489,196.731522 331.990692,209.664703 
	C338.487244,218.542496 346.531311,225.312454 359.141113,227.642838 
	C357.423401,241.355286 356.293030,255.210373 353.825012,268.822937 
	C350.925903,284.813080 345.824982,300.186676 338.104279,314.663849 
	C331.244934,327.525818 322.502563,338.637115 311.028961,347.673401 
	C309.481964,348.891785 308.235016,351.397705 308.117828,353.382355 
	C307.125488,370.185791 309.316925,386.814087 315.378845,402.347412 
	C324.002899,424.446075 338.865967,441.291504 361.724152,450.046112 
	C372.395111,454.133057 383.294983,456.789673 394.756592,457.053253 
	C396.126465,457.084717 397.479706,457.837097 398.670197,458.202942 
	C394.350616,471.699493 392.328857,485.151093 399.224091,498.037231 
	C401.543152,502.371216 406.258820,505.463013 410.030701,508.958984 
	C411.466553,510.289825 413.328125,511.161285 414.997833,512.621094 
	C277.051544,513.000000 139.103104,513.000000 1.077323,513.000000 
	C1.077323,342.448669 1.077323,171.897278 1.077323,1.000000 
	C82.353897,1.000000 163.708298,1.000000 245.531342,1.000002 
z"/>
<path fill="none" opacity="1.000000" stroke="none" 
	d="
M422.468658,513.000000 
	C422.666382,504.359039 422.791351,495.632477 424.139984,487.099365 
	C425.726166,477.063324 436.575500,468.157532 446.221893,468.097961 
	C447.291779,468.091309 448.636749,469.097107 449.397766,470.012695 
	C453.028778,474.381165 456.581879,478.820465 460.005768,483.353088 
	C462.627136,486.823364 463.747284,486.813995 466.346924,483.225006 
	C475.671417,470.351624 482.779297,456.426117 486.568115,440.921234 
	C488.737793,432.042297 488.961884,423.089081 485.848785,414.447968 
	C484.792877,411.517120 482.523438,408.559814 480.007874,406.694275 
	C464.447723,395.155060 457.887726,380.184387 460.842529,360.854065 
	C461.678131,355.387604 463.240753,350.928833 466.639771,346.357574 
	C473.344971,337.339813 469.587555,322.811035 459.292938,316.106689 
	C452.243103,311.515503 450.556641,305.303589 456.904236,298.879913 
	C472.734802,282.859589 472.549103,264.623627 465.612610,245.280472 
	C460.830353,231.944733 452.866089,220.379333 443.947815,209.473312 
	C441.666412,206.683441 439.115326,204.109177 436.912842,201.262024 
	C435.977417,200.052826 435.178345,198.426620 435.075562,196.937576 
	C434.576080,189.701004 434.262878,182.449112 434.016144,175.198120 
	C433.622192,163.621063 434.203522,151.926758 432.711121,140.498978 
	C431.609131,132.060822 428.335968,123.782349 425.196503,115.758934 
	C417.773315,96.787857 406.572906,80.143829 393.323242,64.676872 
	C376.762756,45.345020 356.957489,30.284964 334.684204,18.348347 
	C325.655090,13.509529 316.524078,8.498019 306.862701,5.316659 
	C299.134399,2.771836 290.533295,2.877526 282.159790,1.403421 
	C358.959625,1.000000 435.919220,1.000000 512.939453,1.000000 
	C512.939453,171.666672 512.939453,342.333344 512.939453,513.000000 
	C482.905792,513.000000 452.921539,513.000000 422.468658,513.000000 
z"/>
</svg>