<svg clip-rule="evenodd" fill-rule="evenodd" stroke-linecap="round" stroke-linejoin="round" stroke-miterlimit="1.5" viewBox="0 0 256 256" xmlns="http://www.w3.org/2000/svg"><g id="color"><path d="m79.37 92.548 2.047 36.854c.781 14.059 7.944 26.32 18.583 34.031v27.655c-20.264-1.326-35.696-3.81-44.303-5.454-1.296-.286-2.366-1.197-2.855-2.431s-.333-2.63.416-3.726c8.921-13.272 11.536-51.375 11.922-85.525.467-33.627 27.292-60.782 60.65-61.915l1.014.001c34.937 0 63.411 28.034 63.955 62.967.461 33.876 3.114 71.336 11.94 84.474.748 1.095.904 2.49.415 3.723-.488 1.233-1.557 2.143-2.852 2.429-8.606 1.646-24.038 4.13-44.302 5.457v-28.401c10.7-8.014 17.874-20.525 18.669-34.834l1.998-35.967c-15.056-17.118-44.667-27.886-44.667-27.886s-35.899 11.046-52.63 28.548zm46.46-60.511c-31.26-.037-61.83-.037-61.83-.037h64c-.726 0-1.45.012-2.17.037z"/></g><path d="m125.83 32.037 1.014.001c34.937 0 63.411 28.034 63.955 62.967.461 33.876 3.114 71.336 11.94 84.474.748 1.095.904 2.49.415 3.723-.488 1.233-1.557 2.143-2.852 2.429-8.606 1.646-24.038 4.13-44.302 5.457v-28.401c10.7-8.014 17.874-20.525 18.669-34.834l1.998-35.967c-15.056-17.118-44.667-27.886-44.667-27.886s-35.899 11.046-52.63 28.548l2.047 36.854c.781 14.059 7.944 26.32 18.583 34.031v27.655c-20.264-1.326-35.696-3.81-44.303-5.454-1.296-.286-2.366-1.197-2.855-2.431s-.333-2.63.416-3.726c8.921-13.272 11.536-51.375 11.922-85.525.467-33.627 27.292-60.782 60.65-61.915zm0 0c-31.26-.037-61.83-.037-61.83-.037h64c-.726 0-1.45.012-2.17.037zm.06 4c-31.198 1.099-56.272 26.509-56.711 57.968-.233 20.689-1.288 42.812-4.031 60.096-1.926 12.134-4.776 21.963-8.571 27.608-.004.006-.008.012-.012.019 7.915 1.508 21.578 3.714 39.435 5.068v-21.375c-10.667-8.439-17.767-21.231-18.576-35.797l-2.048-36.854c-.061-1.105.338-2.186 1.103-2.986 17.293-18.091 54.345-29.607 54.345-29.607.832-.256 1.725-.234 2.543.064 0 0 30.682 11.241 46.303 29.004.693.787 1.049 1.816.991 2.863l-1.998 35.967c-.823 14.808-7.938 27.842-18.663 36.563v22.158c17.853-1.354 31.513-3.56 39.429-5.071-.003-.005-.007-.01-.01-.015-3.756-5.59-6.587-15.28-8.512-27.25-2.742-17.043-3.828-38.87-4.108-59.395-.511-32.748-27.203-59.027-59.955-59.027h-.005s-.94-.001-.949-.001z"/><path d="m132.002 62v-14" fill="none" stroke="#000" stroke-width="4"/></svg>