<svg id="svg-eyes_wide" clip-rule="evenodd" fill-rule="evenodd" stroke-linejoin="round" stroke-miterlimit="2" viewBox="0 0 256 256" xmlns="http://www.w3.org/2000/svg"><path d="m164 104c0 4.415-3.585 8-8 8h-12c-4.415 0-8-3.585-8-8s3.585-8 8-8h12c4.415 0 8 3.585 8 8z" fill="#fff"/><path d="m164 104c0 4.415-3.585 8-8 8h-12c-4.415 0-8-3.585-8-8s3.585-8 8-8h12c4.415 0 8 3.585 8 8zm-4 0c0-2.208-1.792-4-4-4h-12c-2.208 0-4 1.792-4 4s1.792 4 4 4h12c2.208 0 4-1.792 4-4z"/><path d="m120 104c0 4.415-3.585 8-8 8h-12c-4.415 0-8-3.585-8-8s3.585-8 8-8h12c4.415 0 8 3.585 8 8z" fill="#fff"/><path d="m120 104c0 4.415-3.585 8-8 8h-12c-4.415 0-8-3.585-8-8s3.585-8 8-8h12c4.415 0 8 3.585 8 8zm-4 0c0-2.208-1.792-4-4-4h-12c-2.208 0-4 1.792-4 4s1.792 4 4 4h12c2.208 0 4-1.792 4-4z"/><g id="color"><path d="m101.529 108c-.95-1.062-1.529-2.464-1.529-4s.579-2.938 1.529-4h8.942c.95 1.062 1.529 2.464 1.529 4s-.579 2.938-1.529 4z"/><path d="m145.529 108c-.95-1.062-1.529-2.464-1.529-4s.579-2.938 1.529-4h8.942c.95 1.062 1.529 2.464 1.529 4s-.579 2.938-1.529 4z"/></g></svg>