<svg id="svg-eyes_round" clip-rule="evenodd" fill-rule="evenodd" stroke-linejoin="round" stroke-miterlimit="2" viewBox="0 0 256 256" xmlns="http://www.w3.org/2000/svg"><path d="m103.055 96.441c.931-.287 1.92-.441 2.945-.441 5.519 0 10 4.481 10 10s-4.481 10-10 10-10-4.481-10-10c0-1.025.154-2.014.441-2.945.785 1.736 2.532 2.945 4.559 2.945 2.76 0 5-2.24 5-5 0-2.027-1.209-3.774-2.945-4.559z"/><path d="m147.055 96.441c.931-.287 1.92-.441 2.945-.441 5.519 0 10 4.481 10 10s-4.481 10-10 10-10-4.481-10-10c0-1.025.154-2.014.441-2.945.785 1.736 2.532 2.945 4.559 2.945 2.76 0 5-2.24 5-5 0-2.027-1.209-3.774-2.945-4.559z"/></svg>